<svg width="44" height="58" viewBox="0 0 44 58" fill="none" xmlns="http://www.w3.org/2000/svg">
<g clip-path="url(#clip0_40_1187)">
<path d="M26.0333 0H41.9667C43.0897 0 44 0.910332 44 2.03329V55.9667C44 57.0897 43.0897 58 41.9667 58H26.0333C24.9103 58 24 57.0897 24 55.9667V2.03329C24 0.910334 24.9103 0 26.0333 0Z" fill="url(#paint0_linear_40_1187)"/>
<g filter="url(#filter0_d_40_1187)">
<path d="M30.0273 14H13.9727C12.8832 14 12 14.8832 12 15.9727V56.0273C12 57.1168 12.8832 58 13.9727 58H32V15.9727C32 14.8832 31.1168 14 30.0273 14Z" fill="url(#paint1_linear_40_1187)"/>
</g>
<path d="M17.9998 29H2.31986C1.23738 29 0.359863 29.8775 0.359863 30.96V56.44C0.359863 57.5224 1.23738 58.4 2.31986 58.4H19.9598V30.96C19.9598 29.8775 19.0823 29 17.9998 29Z" fill="url(#paint2_linear_40_1187)"/>
</g>
<defs>
<filter id="filter0_d_40_1187" x="8.05454" y="14" width="27.8909" height="55.8364" filterUnits="userSpaceOnUse" color-interpolation-filters="sRGB">
<feFlood flood-opacity="0" result="BackgroundImageFix"/>
<feColorMatrix in="SourceAlpha" type="matrix" values="0 0 0 0 0 0 0 0 0 0 0 0 0 0 0 0 0 0 127 0" result="hardAlpha"/>
<feOffset dy="7.89092"/>
<feGaussianBlur stdDeviation="1.97273"/>
<feComposite in2="hardAlpha" operator="out"/>
<feColorMatrix type="matrix" values="0 0 0 0 0 0 0 0 0 0 0 0 0 0 0 0 0 0 0.1 0"/>
<feBlend mode="normal" in2="BackgroundImageFix" result="effect1_dropShadow_40_1187"/>
<feBlend mode="normal" in="SourceGraphic" in2="effect1_dropShadow_40_1187" result="shape"/>
</filter>
<linearGradient id="paint0_linear_40_1187" x1="31" y1="8.54664e-08" x2="41.3008" y2="58.1239" gradientUnits="userSpaceOnUse">
<stop stop-color="#FCC100"/>
<stop offset="1" stop-color="#CE5400"/>
</linearGradient>
<linearGradient id="paint1_linear_40_1187" x1="20" y1="14" x2="25" y2="58" gradientUnits="userSpaceOnUse">
<stop stop-color="#FFDE4E"/>
<stop offset="1" stop-color="#F69B00"/>
</linearGradient>
<linearGradient id="paint2_linear_40_1187" x1="7.21985" y1="29" x2="13.0998" y2="58.4" gradientUnits="userSpaceOnUse">
<stop stop-color="#FFE788"/>
<stop offset="1" stop-color="#FFCE07"/>
</linearGradient>
<clipPath id="clip0_40_1187">
<rect width="44" height="58" fill="white"/>
</clipPath>
</defs>
</svg>
