<svg width="52" height="52" viewBox="0 0 52 52" fill="none" xmlns="http://www.w3.org/2000/svg">
<rect width="52" height="52" rx="26" fill="url(#paint0_linear_67_504)"/>
<path d="M37.4697 38.5302C37.7626 38.8231 38.2374 38.8231 38.5303 38.5302C38.8232 38.2373 38.8232 37.7624 38.5303 37.4696L37.4697 38.5302ZM32.5832 33.6437L37.4697 38.5302L38.5303 37.4696L33.6439 32.5831L32.5832 33.6437Z" fill="white"/>
<path d="M14.421 21.0987C15.1982 17.7853 17.7853 15.1982 21.0987 14.421C23.4915 13.8597 25.9819 13.8597 28.3747 14.421C31.6881 15.1982 34.2752 17.7853 35.0524 21.0987C35.6137 23.4915 35.6137 25.9819 35.0524 28.3747C34.2752 31.6881 31.6881 34.2752 28.3747 35.0524C25.9819 35.6137 23.4915 35.6137 21.0987 35.0524C17.7853 34.2752 15.1982 31.6881 14.421 28.3747C13.8597 25.9819 13.8597 23.4915 14.421 21.0987Z" stroke="white" stroke-width="1.5" stroke-linecap="round"/>
<path d="M14.421 21.0987C13.8597 23.4915 13.8597 25.9819 14.421 28.3747C15.1982 31.6881 17.7853 34.2752 21.0987 35.0524C23.4915 35.6137 25.9819 35.6137 28.3747 35.0524C31.6881 34.2752 34.2752 31.6881 35.0524 28.3747C35.6137 25.9819 35.6137 23.4915 35.0524 21.0987C34.2752 17.7853 31.6881 15.1982 28.3747 14.421C25.9819 13.8597 23.4915 13.8597 21.0987 14.421" stroke="white" stroke-width="1.5" stroke-linecap="round"/>
<defs>
<linearGradient id="paint0_linear_67_504" x1="1.27077e-08" y1="4.42" x2="52" y2="52" gradientUnits="userSpaceOnUse">
<stop offset="0.0989583" stop-color="#EBE187"/>
<stop offset="0.890625" stop-color="#FF5800"/>
</linearGradient>
</defs>
</svg>
